# xmcd CD database file
#
# Track frame offsets:
#	150
#	14440
#	28156
#	39455
#	60493
#	80795
#	93573
#	109853
#	125212
#	136588
#	149819
#	166903
#
# Disc length: 2454 seconds
#
# Revision: 2
# Processed by: cddbd v1.5.2PL0 Copyright (c) Steve Scherf et al.
# Submitted via: CDex 1.70beta2
#
DISCID=ab09940c
DTITLE=Shane Worley - Honky Tonk History
DYEAR=2010
DGENRE=Country
TTITLE0=Rainy day woman
TTITLE1=Is this the beginning of the end
TTITLE2=Heart don't stop stoppin' on me
TTITLE3=Pancho and Lefty
TTITLE4=The blues man
TTITLE5=You asked me to
TTITLE6=I love you a thousand ways
TTITLE7=House with no curtains
TTITLE8=Don't let youe sweet love die
TTITLE9=Every Waylon needs a Jessie
TTITLE10=Old chunk of coal
TTITLE11=Mooney had his back
EXTD=YEAR: 2010
EXTT0=
EXTT1=
EXTT2=
EXTT3=
EXTT4=
EXTT5=
EXTT6=
EXTT7=
EXTT8=
EXTT9=
EXTT10=
EXTT11=
PLAYORDER=
